<svg xmlns="http://www.w3.org/2000/svg" width="1200" height="900" viewBox="0 0 1200 900"><rect width="100%" height="100%" fill="white"/>
<text x="40" y="48" font-family="sans-serif" font-size="28" fill="#233044">First-answer helpfulness: fixed-model prompt diagnostics</text>
<text x="40" y="82" font-family="sans-serif" font-size="18" fill="#233044">Qwen2.5-Coder-14B | 13 code-containing development pairs | 208 schema-valid calls</text>
<rect x="40" y="105" width="18" height="18" fill="#597797"/>
<text x="67" y="119" font-family="sans-serif" font-size="18" fill="#233044">unhelpful</text>
<rect x="310" y="105" width="18" height="18" fill="#edbd59"/>
<text x="337" y="119" font-family="sans-serif" font-size="18" fill="#233044">partial</text>
<rect x="580" y="105" width="18" height="18" fill="#5b9b83"/>
<text x="607" y="119" font-family="sans-serif" font-size="18" fill="#233044">substantial</text>
<rect x="850" y="105" width="18" height="18" fill="#a6a6a6"/>
<text x="877" y="119" font-family="sans-serif" font-size="18" fill="#233044">uncertain</text>
<text x="40" y="177" font-family="sans-serif" font-size="22" fill="#233044">Baseline</text>
<text x="40" y="203" font-family="sans-serif" font-size="17" fill="#233044">original</text>
<rect x="250" y="186" width="715" height="24" fill="#5b9b83"/>
<text x="600.5" y="203" font-family="sans-serif" font-size="16" fill="#ffffff">13</text>
<text x="1000" y="203" font-family="sans-serif" font-size="17" fill="#233044">n=13</text>
<text x="40" y="232" font-family="sans-serif" font-size="17" fill="#233044">swapped code</text>
<rect x="250" y="215" width="330" height="24" fill="#597797"/>
<text x="408.0" y="232" font-family="sans-serif" font-size="16" fill="#ffffff">6</text>
<rect x="580" y="215" width="220" height="24" fill="#edbd59"/>
<text x="683.0" y="232" font-family="sans-serif" font-size="16" fill="#233044">4</text>
<rect x="800" y="215" width="165" height="24" fill="#5b9b83"/>
<text x="875.5" y="232" font-family="sans-serif" font-size="16" fill="#ffffff">3</text>
<text x="1000" y="232" font-family="sans-serif" font-size="17" fill="#233044">n=13</text>
<text x="40" y="261" font-family="sans-serif" font-size="17" fill="#233044">code only</text>
<rect x="250" y="244" width="55" height="24" fill="#edbd59"/>
<text x="270.5" y="261" font-family="sans-serif" font-size="16" fill="#233044">1</text>
<rect x="305" y="244" width="660" height="24" fill="#5b9b83"/>
<text x="628.0" y="261" font-family="sans-serif" font-size="16" fill="#ffffff">12</text>
<text x="1000" y="261" font-family="sans-serif" font-size="17" fill="#233044">n=13</text>
<text x="40" y="290" font-family="sans-serif" font-size="17" fill="#233044">foreign code only</text>
<rect x="250" y="273" width="715" height="24" fill="#597797"/>
<text x="600.5" y="290" font-family="sans-serif" font-size="16" fill="#ffffff">13</text>
<text x="1000" y="290" font-family="sans-serif" font-size="17" fill="#233044">n=13</text>
<text x="40" y="339" font-family="sans-serif" font-size="22" fill="#233044">Evidence</text>
<text x="40" y="365" font-family="sans-serif" font-size="17" fill="#233044">original</text>
<rect x="250" y="348" width="715" height="24" fill="#5b9b83"/>
<text x="600.5" y="365" font-family="sans-serif" font-size="16" fill="#ffffff">13</text>
<text x="1000" y="365" font-family="sans-serif" font-size="17" fill="#233044">n=13</text>
<text x="40" y="394" font-family="sans-serif" font-size="17" fill="#233044">swapped code</text>
<rect x="250" y="377" width="440" height="24" fill="#597797"/>
<text x="463.0" y="394" font-family="sans-serif" font-size="16" fill="#ffffff">8</text>
<rect x="690" y="377" width="220" height="24" fill="#edbd59"/>
<text x="793.0" y="394" font-family="sans-serif" font-size="16" fill="#233044">4</text>
<rect x="910" y="377" width="55" height="24" fill="#5b9b83"/>
<text x="930.5" y="394" font-family="sans-serif" font-size="16" fill="#ffffff">1</text>
<text x="1000" y="394" font-family="sans-serif" font-size="17" fill="#233044">n=13</text>
<text x="40" y="423" font-family="sans-serif" font-size="17" fill="#233044">code only</text>
<rect x="250" y="406" width="220" height="24" fill="#edbd59"/>
<text x="353.0" y="423" font-family="sans-serif" font-size="16" fill="#233044">4</text>
<rect x="470" y="406" width="495" height="24" fill="#5b9b83"/>
<text x="710.5" y="423" font-family="sans-serif" font-size="16" fill="#ffffff">9</text>
<text x="1000" y="423" font-family="sans-serif" font-size="17" fill="#233044">n=13</text>
<text x="40" y="452" font-family="sans-serif" font-size="17" fill="#233044">foreign code only</text>
<rect x="250" y="435" width="715" height="24" fill="#597797"/>
<text x="600.5" y="452" font-family="sans-serif" font-size="16" fill="#ffffff">13</text>
<text x="1000" y="452" font-family="sans-serif" font-size="17" fill="#233044">n=13</text>
<text x="40" y="501" font-family="sans-serif" font-size="22" fill="#233044">Dimensions</text>
<text x="40" y="527" font-family="sans-serif" font-size="17" fill="#233044">original</text>
<rect x="250" y="510" width="165" height="24" fill="#edbd59"/>
<text x="325.5" y="527" font-family="sans-serif" font-size="16" fill="#233044">3</text>
<rect x="415" y="510" width="550" height="24" fill="#5b9b83"/>
<text x="683.0" y="527" font-family="sans-serif" font-size="16" fill="#ffffff">10</text>
<text x="1000" y="527" font-family="sans-serif" font-size="17" fill="#233044">n=13</text>
<text x="40" y="556" font-family="sans-serif" font-size="17" fill="#233044">swapped code</text>
<rect x="250" y="539" width="330" height="24" fill="#597797"/>
<text x="408.0" y="556" font-family="sans-serif" font-size="16" fill="#ffffff">6</text>
<rect x="580" y="539" width="165" height="24" fill="#edbd59"/>
<text x="655.5" y="556" font-family="sans-serif" font-size="16" fill="#233044">3</text>
<rect x="745" y="539" width="220" height="24" fill="#5b9b83"/>
<text x="848.0" y="556" font-family="sans-serif" font-size="16" fill="#ffffff">4</text>
<text x="1000" y="556" font-family="sans-serif" font-size="17" fill="#233044">n=13</text>
<text x="40" y="585" font-family="sans-serif" font-size="17" fill="#233044">code only</text>
<rect x="250" y="568" width="110" height="24" fill="#edbd59"/>
<text x="298.0" y="585" font-family="sans-serif" font-size="16" fill="#233044">2</text>
<rect x="360" y="568" width="605" height="24" fill="#5b9b83"/>
<text x="655.5" y="585" font-family="sans-serif" font-size="16" fill="#ffffff">11</text>
<text x="1000" y="585" font-family="sans-serif" font-size="17" fill="#233044">n=13</text>
<text x="40" y="614" font-family="sans-serif" font-size="17" fill="#233044">foreign code only</text>
<rect x="250" y="597" width="715" height="24" fill="#597797"/>
<text x="600.5" y="614" font-family="sans-serif" font-size="16" fill="#ffffff">13</text>
<text x="1000" y="614" font-family="sans-serif" font-size="17" fill="#233044">n=13</text>
<text x="40" y="663" font-family="sans-serif" font-size="22" fill="#233044">Combined</text>
<text x="40" y="689" font-family="sans-serif" font-size="17" fill="#233044">original</text>
<rect x="250" y="672" width="110" height="24" fill="#edbd59"/>
<text x="298.0" y="689" font-family="sans-serif" font-size="16" fill="#233044">2</text>
<rect x="360" y="672" width="605" height="24" fill="#5b9b83"/>
<text x="655.5" y="689" font-family="sans-serif" font-size="16" fill="#ffffff">11</text>
<text x="1000" y="689" font-family="sans-serif" font-size="17" fill="#233044">n=13</text>
<text x="40" y="718" font-family="sans-serif" font-size="17" fill="#233044">swapped code</text>
<rect x="250" y="701" width="440" height="24" fill="#597797"/>
<text x="463.0" y="718" font-family="sans-serif" font-size="16" fill="#ffffff">8</text>
<rect x="690" y="701" width="165" height="24" fill="#edbd59"/>
<text x="765.5" y="718" font-family="sans-serif" font-size="16" fill="#233044">3</text>
<rect x="855" y="701" width="110" height="24" fill="#5b9b83"/>
<text x="903.0" y="718" font-family="sans-serif" font-size="16" fill="#ffffff">2</text>
<text x="1000" y="718" font-family="sans-serif" font-size="17" fill="#233044">n=13</text>
<text x="40" y="747" font-family="sans-serif" font-size="17" fill="#233044">code only</text>
<rect x="250" y="730" width="110" height="24" fill="#edbd59"/>
<text x="298.0" y="747" font-family="sans-serif" font-size="16" fill="#233044">2</text>
<rect x="360" y="730" width="605" height="24" fill="#5b9b83"/>
<text x="655.5" y="747" font-family="sans-serif" font-size="16" fill="#ffffff">11</text>
<text x="1000" y="747" font-family="sans-serif" font-size="17" fill="#233044">n=13</text>
<text x="40" y="776" font-family="sans-serif" font-size="17" fill="#233044">foreign code only</text>
<rect x="250" y="759" width="715" height="24" fill="#597797"/>
<text x="600.5" y="776" font-family="sans-serif" font-size="16" fill="#ffffff">13</text>
<text x="1000" y="776" font-family="sans-serif" font-size="17" fill="#233044">n=13</text>
<text x="40" y="839" font-family="sans-serif" font-size="17" fill="#233044">Bars show counts, not correctness. Correct prose may remain useful after code replacement.</text>
<text x="40" y="869" font-family="sans-serif" font-size="17" fill="#233044">Adaptive development tests; no independent semantic gold labels or held-out validation.</text>
</svg>